<?xml version="1.0" encoding="utf-8"?>
<!-- Generator: Adobe Illustrator 15.1.0, SVG Export Plug-In . SVG Version: 6.00 Build 0)  -->
<!DOCTYPE svg PUBLIC "-//W3C//DTD SVG 1.1//EN" "http://www.w3.org/Graphics/SVG/1.1/DTD/svg11.dtd">
<svg version="1.1" id="Layer_1" xmlns="http://www.w3.org/2000/svg" xmlns:xlink="http://www.w3.org/1999/xlink" x="0px" y="0px"
	 width="542.325px" height="836.649px" viewBox="26 2.621 542.325 836.649" enable-background="new 26 2.621 542.325 836.649"
	 xml:space="preserve">
<path fill="#111126" fill-opacity="0.61" d="M568.042,467.447c-1.801-15.53-0.9-44.228-12.717-56.494s-15.98-24.646-28.697-36.462
	s-19.582-26.446-23.633-37.813s-11.367-56.944-36.012-68.76c-24.646-11.816-50.529-21.832-50.529-21.832s15.98-9.566,16.881-26.896
	s15.08-14.63,15.529-27.796c0.451-13.167,9.566-26.446,3.602-40.964c-5.965-14.517-8.666-25.546-21.383-30.948
	c0,0,16.432-11.816,8.666-26.896c-7.766-15.08-8.215-19.131-9.115-37.362c-0.9-18.231,1.35-22.283-15.98-35.562
	c-17.33-13.167-20.031-22.282-35.563-9.116c0,0-4.051-8.665-17.33,9.116c0,0-25.547-18.681-55.594-1.351
	c0,0-36.912-2.25-52.441,42.764c0,0-21.833-5.514-24.196-1.8c0,0-31.848-9.566-39.163,26.896c0,0-9.565-0.9-15.08-10.016
	c-5.514-9.116-13.167-5.064-13.167-5.064s-4.052-9.116-10.016-1.801c0,0-44.227-30.948-48.278-49.179S85.257-2.17,74.792,8.295
	s-15.08,22.732,2.251,29.597c17.331,6.865,48.729,33.761,55.593,43.327c0,0-6.415,15.98,1.351,31.397c0,0-3.151,7.315-9.566,8.215
	s-12.267,10.466-10.466,18.681c1.8,8.215-3.151,21.832-7.765,25.996c-4.614,4.164-7.315,5.064-15.08,13.167
	c-7.765,8.215-15.98,6.415-16.88,17.331s-24.983,35.899-29.597,46.815C40.13,253.739,24.6,274.671,26.851,287.05
	c2.251,12.379-5.964,17.781,5.064,26.896c11.028,9.115,38.713,30.498,64.709,29.147c0,0,30.947-0.9,51.879-7.315
	s36.462-15.53,40.513-13.617c0,0-15.98,40.963-20.481,66.959s-7.315,58.294-10.466,68.76c-3.151,10.466-12.716,34.662-10.916,38.713
	c1.801,4.052,36.912,22.282,48.729,20.482c0,0-5.964,21.269,4.051,16.543c0,0-5.514,27.346,0,52.892l-12.154,15.756l3.039,29.146
	l6.64,5.515c0,0-30.385,62.57-42.539,126.941c-5.289,28.135-9.565,54.581-12.717,75.4h103.984
	c27.797-52.33,74.951-141.571,78.439-150.125l23.07-7.314c0,0,5.289,97.569,13.729,157.327h91.381
	c9.115-46.479,23.633-122.554,24.871-142.81c1.799-29.71-3.602-68.648-8.553-79.564l8.889,0.563l-10.127-39.276l6.863-7.314
	c0,0,10.467,15.08,13.168,4.052c2.701-10.917,7.766-10.917,12.717-20.933s15.529-7.314,20.482-15.53
	c5.063-8.215,17.779-14.629,17.779-14.629s18.232-5.064,20.482-16.881S569.955,482.977,568.042,467.447z M202.071,167.648
	c-10.917,9.34-19.131,26.896-22.958,32.523c-3.826,5.626-0.675,18.006-8.44,19.581c-7.765,1.576-48.954,29.147-48.954,29.147
	c10.916-14.63,12.716-36.462,19.581-44.227c6.865-7.765,2.026-9.791,6.19-18.682c4.164-8.89,14.63-9.565,18.456-20.256
	s4.276-17.556,9.34-18.006c5.064-0.45,15.755-7.99,15.755-7.99l9.115,9.116C200.045,148.967,212.987,158.308,202.071,167.648z
	 M300.203,199.383l-29.596-17.105c4.275-7.765-0.227-20.707-3.377-30.498c-3.15-9.791-23.971-29.597-32.523-41.864
	c-8.665-12.267-1.35-23.97-1.35-23.97c2.025,2.701,18.68,2.701,18.68,2.701v1.125c-3.262,16.093,12.043,28.021,14.969,30.16
	c0.225,0,0.449,0.338,0.449,0.338s-0.225-0.113-0.449-0.338c-0.563,0-1.463,1.351-1.125,9.903
	c0.449,12.717,20.48,24.871,25.77,26.896c5.289,2.025,9.115,14.067,11.816,21.607S300.203,199.383,300.203,199.383z M390.683,62.426
	c-4.84-15.305-14.629-26.671-14.629-26.671c8.439-13.167,17.779-3.376,20.705,4.501C399.687,48.134,390.683,62.426,390.683,62.426z
	 M498.269,468.91c0,0-19.469,14.854-22.732,23.633c-3.377,8.777-1.238-71.687-1.238-71.687s9.115,30.048,23.971,40.063V468.91
	L498.269,468.91z"/>
</svg>
